REM GENRE "Noise"
REM DATE "2021"
REM COMMENT "Solo un po' di rumore generato con soX"
PERFORMER "SoX il genio"
TITLE "SoX - Tre Campioni in più"

FILE "Three Samples.flac" WAVE

  TRACK 01 AUDIO
    TITLE "è di 300 Hz"
    INDEX 01 00:00:00
  TRACK 02 AUDIO
    TITLE "è di 400 Hz"
    INDEX 01 00:02:00
  TRACK 03 AUDIO
    TITLE "è di 500 Hz"
    INDEX 01 00:04:00
